<?xml version="1.0" encoding="UTF-8" standalone="no"?><svg xmlns="http://www.w3.org/2000/svg" xmlns:xlink="http://www.w3.org/1999/xlink" contentStyleType="text/css" height="564px" preserveAspectRatio="none" style="width:346px;height:564px;background:#FFFFFF;" version="1.1" viewBox="0 0 346 564" width="346px" zoomAndPan="magnify"><defs/><g><!--MD5=[4ffd3bf8cc4a0ac1a490c9b03514d204]
cluster Monolopy--><g id="cluster_Monolopy"><rect fill="none" height="551" rx="2.5" ry="2.5" style="stroke:#181818;stroke-width:1.0;" width="173" x="90" y="7"/><text fill="#000000" font-family="sans-serif" font-size="14" font-weight="bold" lengthAdjust="spacing" textLength="69" x="142" y="23.5332">Monolopy</text></g><g id="elem_rd"><ellipse cx="176.6812" cy="58.9655" fill="#F1F1F1" rx="46.1812" ry="15.4655" style="stroke:#181818;stroke-width:0.5;"/><text fill="#000000" font-family="sans-serif" font-size="14" lengthAdjust="spacing" textLength="49" x="150.7471" y="63.108">Roll Die</text></g><g id="elem_mp"><ellipse cx="176.3631" cy="125.109" fill="#F1F1F1" rx="63.8631" ry="15.609" style="stroke:#181818;stroke-width:0.5;"/><text fill="#000000" font-family="sans-serif" font-size="14" lengthAdjust="spacing" textLength="73" x="136.8631" y="129.6256">Move Piece</text></g><g id="elem_bp"><ellipse cx="176.5887" cy="192.0177" fill="#F1F1F1" rx="68.0887" ry="16.0177" style="stroke:#181818;stroke-width:0.5;"/><text fill="#000000" font-family="sans-serif" font-size="14" lengthAdjust="spacing" textLength="82" x="132.5887" y="196.5343">Buy Property</text></g><g id="elem_sp"><ellipse cx="176.2517" cy="258.9503" fill="#F1F1F1" rx="67.7517" ry="15.9503" style="stroke:#181818;stroke-width:0.5;"/><text fill="#000000" font-family="sans-serif" font-size="14" lengthAdjust="spacing" textLength="81" x="132.7517" y="263.4669">Sell Property</text></g><g id="elem_pr"><ellipse cx="176.2806" cy="326.0229" fill="#F1F1F1" rx="52.7806" ry="15.5229" style="stroke:#181818;stroke-width:0.5;"/><text fill="#000000" font-family="sans-serif" font-size="14" lengthAdjust="spacing" textLength="58" x="144.2806" y="330.5395">Pay Rent</text></g><g id="elem_pf"><ellipse cx="176.3032" cy="392.0087" fill="#F1F1F1" rx="51.3032" ry="15.5087" style="stroke:#181818;stroke-width:0.5;"/><text fill="#000000" font-family="sans-serif" font-size="14" lengthAdjust="spacing" textLength="56" x="145.3032" y="396.5253">Pay Fine</text></g><g id="elem_cm"><ellipse cx="176.5039" cy="459.0008" fill="#F1F1F1" rx="70.5039" ry="16.5008" style="stroke:#181818;stroke-width:0.5;"/><text fill="#000000" font-family="sans-serif" font-size="14" lengthAdjust="spacing" textLength="89" x="129.0039" y="463.5174">Collect Money</text></g><g id="elem_gm"><ellipse cx="176.341" cy="526.1182" fill="#F1F1F1" rx="65.341" ry="15.6182" style="stroke:#181818;stroke-width:0.5;"/><text fill="#000000" font-family="sans-serif" font-size="14" lengthAdjust="spacing" textLength="75" x="135.841" y="530.6348">Give Money</text></g><!--MD5=[626ad08abde0879284d52f51a0eb42aa]
entity P--><g id="elem_P"><ellipse cx="26" cy="228.5" fill="#F1F1F1" rx="8" ry="8" style="stroke:#181818;stroke-width:0.5;"/><path d="M26,236.5 L26,263.5 M13,244.5 L39,244.5 M26,263.5 L13,278.5 M26,263.5 L39,278.5 " fill="none" style="stroke:#181818;stroke-width:0.5;"/><text fill="#000000" font-family="sans-serif" font-size="14" lengthAdjust="spacing" textLength="40" x="6" y="294.5332">Player</text></g><!--MD5=[b2d39259b6aeabc16b394deeb0238426]
entity B--><g id="elem_B"><ellipse cx="323" cy="428.5" fill="#F1F1F1" rx="8" ry="8" style="stroke:#181818;stroke-width:0.5;"/><path d="M323,436.5 L323,463.5 M310,444.5 L336,444.5 M323,463.5 L310,478.5 M323,463.5 L336,478.5 " fill="none" style="stroke:#181818;stroke-width:0.5;"/><text fill="#000000" font-family="sans-serif" font-size="14" lengthAdjust="spacing" textLength="32" x="307" y="494.5332">Bank</text></g><!--MD5=[94c1494b0dfa4b74d8d89fe0b28a0534]
link P to rd--><g id="link_P_rd"><path d="M30.13,219.82 C35.13,182.35 48.15,126.57 82,92 C94.44,79.29 112.07,71.47 128.67,66.65 " fill="none" id="P-to-rd" style="stroke:#181818;stroke-width:1.0;"/><polygon fill="#181818" points="133.78,65.25,124.0443,63.7614,128.9565,66.5668,126.1512,71.479,133.78,65.25" style="stroke:#181818;stroke-width:1.0;"/></g><!--MD5=[e3349e060a5f937d1db8d85c9deb6eda]
link P to mp--><g id="link_P_mp"><path d="M40.33,219.94 C49.23,199.04 62.85,174.32 82,158 C93.42,148.27 107.9,141.34 122.03,136.43 " fill="none" id="P-to-mp" style="stroke:#181818;stroke-width:1.0;"/><polygon fill="#181818" points="126.81,134.84,117.0087,133.8736,122.0637,136.4126,119.5248,141.4676,126.81,134.84" style="stroke:#181818;stroke-width:1.0;"/></g><!--MD5=[ac433754b27d049ab67e6502af736615]
link P to bp--><g id="link_P_bp"><path d="M46.03,245.83 C56.36,239.04 69.55,230.96 82,225 C96.79,217.92 113.51,211.54 128.69,206.32 " fill="none" id="P-to-bp" style="stroke:#181818;stroke-width:1.0;"/><polygon fill="#181818" points="133.77,204.6,123.9603,203.7222,129.0381,206.2154,126.545,211.2932,133.77,204.6" style="stroke:#181818;stroke-width:1.0;"/></g><!--MD5=[4c994153d07cdcc44e71c6d50af5a1df]
link P to sp--><g id="link_P_sp"><path d="M46.11,259 C60.83,259 82.18,259 103.3,259 " fill="none" id="P-to-sp" style="stroke:#181818;stroke-width:1.0;"/><polygon fill="#181818" points="108.38,259,99.38,255,103.38,259,99.38,263,108.38,259" style="stroke:#181818;stroke-width:1.0;"/></g><!--MD5=[c3c522560e96b3d29b7945165e6ea025]
link P to pr--><g id="link_P_pr"><path d="M46.1,271.7 C56.46,278.26 69.63,286.11 82,292 C98.82,300.01 118.06,307.31 134.7,313.07 " fill="none" id="P-to-pr" style="stroke:#181818;stroke-width:1.0;"/><polygon fill="#181818" points="139.77,314.81,132.5631,308.0973,135.0425,313.1818,129.958,315.6612,139.77,314.81" style="stroke:#181818;stroke-width:1.0;"/></g><!--MD5=[3f1c498f63fd7a3e7592daca6fedc8f5]
link P to pf--><g id="link_P_pf"><path d="M40.63,298.17 C49.56,318.76 63.11,342.98 82,359 C94.97,370 111.85,377.43 127.69,382.4 " fill="none" id="P-to-pf" style="stroke:#181818;stroke-width:1.0;"/><polygon fill="#181818" points="132.57,383.86,125.0902,377.4528,127.7789,382.4298,122.8019,385.1186,132.57,383.86" style="stroke:#181818;stroke-width:1.0;"/></g><!--MD5=[62136b7bd722410674c57d6c98c240b2]
link P to cm--><g id="link_P_cm"><path d="M30.31,298.23 C35.46,335.43 48.57,390.6 82,425 C91.54,434.82 104.14,441.82 116.98,446.8 " fill="none" id="P-to-cm" style="stroke:#181818;stroke-width:1.0;"/><polygon fill="#181818" points="121.72,448.55,114.6606,441.6823,117.029,446.8195,111.8918,449.1879,121.72,448.55" style="stroke:#181818;stroke-width:1.0;"/></g><!--MD5=[9b224bca543ee63012f608ea4e5a3ef9]
reverse link cm to B--><g id="link_cm_B"><path d="M252.23,459 C273.07,459 293.64,459 306.99,459 " fill="none" id="cm-backto-B" style="stroke:#181818;stroke-width:1.0;"/><polygon fill="#181818" points="247.21,459,256.21,463,252.21,459,256.21,455,247.21,459" style="stroke:#181818;stroke-width:1.0;"/></g><!--MD5=[1825d38cdaa6debbf12ad061389c51b5]
reverse link gm to B--><g id="link_gm_B"><path d="M223.2,512.41 C238.72,507.13 255.93,500.53 271,493 C283.75,486.62 297.13,477.61 306.98,470.46 " fill="none" id="gm-backto-B" style="stroke:#181818;stroke-width:1.0;"/><polygon fill="#181818" points="218.44,514,228.2439,514.9398,223.182,512.4146,225.7072,507.3526,218.44,514" style="stroke:#181818;stroke-width:1.0;"/></g><!--MD5=[872616e14a5995e6fd799f747bc6c473]
reverse link sp to B--><g id="link_sp_B"><path d="M235.31,270.72 C248.45,275.72 261.36,282.85 271,293 C303.82,327.53 315.55,382.67 319.73,419.82 " fill="none" id="sp-backto-B" style="stroke:#181818;stroke-width:1.0;"/><polygon fill="#181818" points="230.46,268.97,237.5628,275.7927,235.1619,270.6707,240.2839,268.2697,230.46,268.97" style="stroke:#181818;stroke-width:1.0;"/></g><!--MD5=[7e595d0d67c97614958fee29534dbbec]
@startuml use_case_diagram
left to right direction
actor "Player" as P
actor "Bank" as B

rectangle Monolopy {
    usecase "Roll Die" as rd
    usecase "Move Piece" as mp
    usecase "Buy Property" as bp
    usecase "Sell Property" as sp
    usecase "Pay Rent" as pr
    usecase "Pay Fine" as pf
    usecase "Collect Money" as cm
    usecase "Give Money" as gm
}
P - -> rd
P - -> mp
P - -> bp
P - -> sp
P - -> pr
P - -> pf
P - -> cm
cm <- - B
gm <- - B
sp <- - B
@enduml

PlantUML version 1.2022.7(Mon Aug 22 19:01:30 CEST 2022)
(GPL source distribution)
Java Runtime: OpenJDK Runtime Environment
JVM: OpenJDK 64-Bit Server VM
Default Encoding: Cp1252
Language: en
Country: GB
--></g></svg>