<?xml version="1.0" encoding="UTF-8" standalone="no"?><svg xmlns="http://www.w3.org/2000/svg" xmlns:xlink="http://www.w3.org/1999/xlink" contentStyleType="text/css" height="1103px" preserveAspectRatio="none" style="width:1462px;height:1103px;background:#FFFFFF;" version="1.1" viewBox="0 0 1462 1103" width="1462px" zoomAndPan="magnify"><defs/><g><!--MD5=[f9a29335b499db729be669fd1bd54958]
class Account--><g id="elem_Account"><rect codeLine="1" fill="#F1F1F1" height="153.6563" id="Account" rx="2.5" ry="2.5" style="stroke:#181818;stroke-width:0.5;" width="201" x="1153.5" y="7"/><ellipse cx="1224.25" cy="23" fill="#ADD1B2" rx="11" ry="11" style="stroke:#181818;stroke-width:1.0;"/><path d="M1227.0156,18.875 Q1227.1719,18.6563 1227.3594,18.5469 Q1227.5469,18.4375 1227.7656,18.4375 Q1228.1406,18.4375 1228.375,18.7031 Q1228.6094,18.9531 1228.6094,19.5625 L1228.6094,21.0156 Q1228.6094,21.625 1228.375,21.8906 Q1228.1406,22.1563 1227.7656,22.1563 Q1227.4219,22.1563 1227.2188,21.9531 Q1227.0156,21.7656 1226.9063,21.25 Q1226.8594,20.8906 1226.6719,20.7031 Q1226.3438,20.3281 1225.7344,20.1094 Q1225.125,19.8906 1224.5,19.8906 Q1223.7344,19.8906 1223.0938,20.2188 Q1222.4688,20.5469 1221.9688,21.2969 Q1221.4844,22.0469 1221.4844,23.0781 L1221.4844,24.1719 Q1221.4844,25.4063 1222.375,26.2344 Q1223.2656,27.0469 1224.8594,27.0469 Q1225.7969,27.0469 1226.4531,26.7969 Q1226.8438,26.6406 1227.2656,26.2031 Q1227.5313,25.9375 1227.6719,25.8594 Q1227.8281,25.7813 1228.0313,25.7813 Q1228.3594,25.7813 1228.6094,26.0469 Q1228.875,26.2969 1228.875,26.6406 Q1228.875,26.9844 1228.5313,27.3906 Q1228.0313,27.9688 1227.2344,28.2969 Q1226.1563,28.75 1224.8594,28.75 Q1223.3438,28.75 1222.1406,28.125 Q1221.1563,27.625 1220.4688,26.5625 Q1219.7813,25.4844 1219.7813,24.2031 L1219.7813,23.0469 Q1219.7813,21.7188 1220.3906,20.5781 Q1221.0156,19.4219 1222.1094,18.8125 Q1223.2031,18.1875 1224.4375,18.1875 Q1225.1719,18.1875 1225.8125,18.3594 Q1226.4688,18.5156 1227.0156,18.875 Z " fill="#000000"/><text fill="#000000" font-family="sans-serif" font-size="14" lengthAdjust="spacing" textLength="51" x="1244.75" y="28.7285">Account</text><line style="stroke:#181818;stroke-width:0.5;" x1="1154.5" x2="1353.5" y1="39" y2="39"/><rect fill="none" height="6" style="stroke:#C82930;stroke-width:1.0;" width="6" x="1161.5" y="50.3047"/><text fill="#000000" font-family="sans-serif" font-size="14" lengthAdjust="spacing" textLength="73" x="1173.5" y="57.5332">balance: int</text><line style="stroke:#181818;stroke-width:0.5;" x1="1154.5" x2="1353.5" y1="64.6094" y2="64.6094"/><ellipse cx="1164.5" cy="78.9141" fill="#84BE84" rx="3" ry="3" style="stroke:#038048;stroke-width:1.0;"/><text fill="#000000" font-family="sans-serif" font-size="14" lengthAdjust="spacing" textLength="163" x="1173.5" y="83.1426">Account(startBalance: int)</text><ellipse cx="1164.5" cy="96.5234" fill="#84BE84" rx="3" ry="3" style="stroke:#038048;stroke-width:1.0;"/><text fill="#000000" font-family="sans-serif" font-size="14" lengthAdjust="spacing" textLength="104" x="1173.5" y="100.752">getBalance(): int</text><ellipse cx="1164.5" cy="114.1328" fill="#84BE84" rx="3" ry="3" style="stroke:#038048;stroke-width:1.0;"/><text fill="#000000" font-family="sans-serif" font-size="14" lengthAdjust="spacing" textLength="144" x="1173.5" y="118.3613">addBalance(): boolean</text><ellipse cx="1164.5" cy="131.7422" fill="#84BE84" rx="3" ry="3" style="stroke:#038048;stroke-width:1.0;"/><text fill="#000000" font-family="sans-serif" font-size="14" lengthAdjust="spacing" textLength="175" x="1173.5" y="135.9707">subtractBalance() : boolean</text><ellipse cx="1164.5" cy="149.3516" fill="#84BE84" rx="3" ry="3" style="stroke:#038048;stroke-width:1.0;"/><text fill="#000000" font-family="sans-serif" font-size="14" lengthAdjust="spacing" textLength="104" x="1173.5" y="153.5801">toString(): String</text></g><!--MD5=[2cb47ba637a0d19583e6199456f6ad0b]
class Player--><g id="elem_Player"><rect codeLine="10" fill="#F1F1F1" height="224.0938" id="Player" rx="2.5" ry="2.5" style="stroke:#181818;stroke-width:0.5;" width="317" x="1094.5" y="225"/><ellipse cx="1228.75" cy="241" fill="#ADD1B2" rx="11" ry="11" style="stroke:#181818;stroke-width:1.0;"/><path d="M1231.5156,236.875 Q1231.6719,236.6563 1231.8594,236.5469 Q1232.0469,236.4375 1232.2656,236.4375 Q1232.6406,236.4375 1232.875,236.7031 Q1233.1094,236.9531 1233.1094,237.5625 L1233.1094,239.0156 Q1233.1094,239.625 1232.875,239.8906 Q1232.6406,240.1563 1232.2656,240.1563 Q1231.9219,240.1563 1231.7188,239.9531 Q1231.5156,239.7656 1231.4063,239.25 Q1231.3594,238.8906 1231.1719,238.7031 Q1230.8438,238.3281 1230.2344,238.1094 Q1229.625,237.8906 1229,237.8906 Q1228.2344,237.8906 1227.5938,238.2188 Q1226.9688,238.5469 1226.4688,239.2969 Q1225.9844,240.0469 1225.9844,241.0781 L1225.9844,242.1719 Q1225.9844,243.4063 1226.875,244.2344 Q1227.7656,245.0469 1229.3594,245.0469 Q1230.2969,245.0469 1230.9531,244.7969 Q1231.3438,244.6406 1231.7656,244.2031 Q1232.0313,243.9375 1232.1719,243.8594 Q1232.3281,243.7813 1232.5313,243.7813 Q1232.8594,243.7813 1233.1094,244.0469 Q1233.375,244.2969 1233.375,244.6406 Q1233.375,244.9844 1233.0313,245.3906 Q1232.5313,245.9688 1231.7344,246.2969 Q1230.6563,246.75 1229.3594,246.75 Q1227.8438,246.75 1226.6406,246.125 Q1225.6563,245.625 1224.9688,244.5625 Q1224.2813,243.4844 1224.2813,242.2031 L1224.2813,241.0469 Q1224.2813,239.7188 1224.8906,238.5781 Q1225.5156,237.4219 1226.6094,236.8125 Q1227.7031,236.1875 1228.9375,236.1875 Q1229.6719,236.1875 1230.3125,236.3594 Q1230.9688,236.5156 1231.5156,236.875 Z " fill="#000000"/><text fill="#000000" font-family="sans-serif" font-size="14" lengthAdjust="spacing" textLength="40" x="1249.25" y="246.7285">Player</text><line style="stroke:#181818;stroke-width:0.5;" x1="1095.5" x2="1410.5" y1="257" y2="257"/><rect fill="none" height="6" style="stroke:#C82930;stroke-width:1.0;" width="6" x="1102.5" y="268.3047"/><text fill="#000000" font-family="sans-serif" font-size="14" lengthAdjust="spacing" textLength="105" x="1114.5" y="275.5332">character: String</text><rect fill="none" height="6" style="stroke:#C82930;stroke-width:1.0;" width="6" x="1102.5" y="285.9141"/><text fill="#000000" font-family="sans-serif" font-size="14" lengthAdjust="spacing" textLength="47" x="1114.5" y="293.1426">age: int</text><rect fill="none" height="6" style="stroke:#C82930;stroke-width:1.0;" width="6" x="1102.5" y="303.5234"/><text fill="#000000" font-family="sans-serif" font-size="14" lengthAdjust="spacing" textLength="72" x="1114.5" y="310.752">position: int</text><ellipse cx="1105.5" cy="324.1328" fill="none" rx="3" ry="3" style="stroke:#038048;stroke-width:1.0;"/><text fill="#000000" font-family="sans-serif" font-size="14" lengthAdjust="spacing" textLength="109" x="1114.5" y="328.3613">account: Account</text><line style="stroke:#181818;stroke-width:0.5;" x1="1095.5" x2="1410.5" y1="335.4375" y2="335.4375"/><ellipse cx="1105.5" cy="349.7422" fill="#84BE84" rx="3" ry="3" style="stroke:#038048;stroke-width:1.0;"/><text fill="#000000" font-family="sans-serif" font-size="14" lengthAdjust="spacing" textLength="291" x="1114.5" y="353.9707">Player(name: String age: int, startBalance: int)</text><ellipse cx="1105.5" cy="367.3516" fill="#84BE84" rx="3" ry="3" style="stroke:#038048;stroke-width:1.0;"/><text fill="#000000" font-family="sans-serif" font-size="14" lengthAdjust="spacing" textLength="111" x="1114.5" y="371.5801">getName(): String</text><ellipse cx="1105.5" cy="384.9609" fill="#84BE84" rx="3" ry="3" style="stroke:#038048;stroke-width:1.0;"/><text fill="#000000" font-family="sans-serif" font-size="14" lengthAdjust="spacing" textLength="78" x="1114.5" y="389.1895">getAge(): int</text><ellipse cx="1105.5" cy="402.5703" fill="#84BE84" rx="3" ry="3" style="stroke:#038048;stroke-width:1.0;"/><text fill="#000000" font-family="sans-serif" font-size="14" lengthAdjust="spacing" textLength="103" x="1114.5" y="406.7988">getPosition(): int</text><ellipse cx="1105.5" cy="420.1797" fill="#84BE84" rx="3" ry="3" style="stroke:#038048;stroke-width:1.0;"/><text fill="#000000" font-family="sans-serif" font-size="14" lengthAdjust="spacing" textLength="102" x="1114.5" y="424.4082">setPosition(): int</text><ellipse cx="1105.5" cy="437.7891" fill="#84BE84" rx="3" ry="3" style="stroke:#038048;stroke-width:1.0;"/><text fill="#000000" font-family="sans-serif" font-size="14" lengthAdjust="spacing" textLength="104" x="1114.5" y="442.0176">toString(): String</text></g><!--MD5=[f55d592c5130daf0ceebcd2d990036d6]
class Bank--><g id="elem_Bank"><rect codeLine="25" fill="#F1F1F1" height="118.4375" id="Bank" rx="2.5" ry="2.5" style="stroke:#181818;stroke-width:0.5;" width="332" x="564" y="277"/><ellipse cx="709.75" cy="293" fill="#ADD1B2" rx="11" ry="11" style="stroke:#181818;stroke-width:1.0;"/><path d="M712.5156,288.875 Q712.6719,288.6563 712.8594,288.5469 Q713.0469,288.4375 713.2656,288.4375 Q713.6406,288.4375 713.875,288.7031 Q714.1094,288.9531 714.1094,289.5625 L714.1094,291.0156 Q714.1094,291.625 713.875,291.8906 Q713.6406,292.1563 713.2656,292.1563 Q712.9219,292.1563 712.7188,291.9531 Q712.5156,291.7656 712.4063,291.25 Q712.3594,290.8906 712.1719,290.7031 Q711.8438,290.3281 711.2344,290.1094 Q710.625,289.8906 710,289.8906 Q709.2344,289.8906 708.5938,290.2188 Q707.9688,290.5469 707.4688,291.2969 Q706.9844,292.0469 706.9844,293.0781 L706.9844,294.1719 Q706.9844,295.4063 707.875,296.2344 Q708.7656,297.0469 710.3594,297.0469 Q711.2969,297.0469 711.9531,296.7969 Q712.3438,296.6406 712.7656,296.2031 Q713.0313,295.9375 713.1719,295.8594 Q713.3281,295.7813 713.5313,295.7813 Q713.8594,295.7813 714.1094,296.0469 Q714.375,296.2969 714.375,296.6406 Q714.375,296.9844 714.0313,297.3906 Q713.5313,297.9688 712.7344,298.2969 Q711.6563,298.75 710.3594,298.75 Q708.8438,298.75 707.6406,298.125 Q706.6563,297.625 705.9688,296.5625 Q705.2813,295.4844 705.2813,294.2031 L705.2813,293.0469 Q705.2813,291.7188 705.8906,290.5781 Q706.5156,289.4219 707.6094,288.8125 Q708.7031,288.1875 709.9375,288.1875 Q710.6719,288.1875 711.3125,288.3594 Q711.9688,288.5156 712.5156,288.875 Z " fill="#000000"/><text fill="#000000" font-family="sans-serif" font-size="14" lengthAdjust="spacing" textLength="32" x="730.25" y="298.7285">Bank</text><line style="stroke:#181818;stroke-width:0.5;" x1="565" x2="895" y1="309" y2="309"/><rect fill="none" height="6" style="stroke:#C82930;stroke-width:1.0;" width="6" x="572" y="320.3047"/><text fill="#000000" font-family="sans-serif" font-size="14" lengthAdjust="spacing" textLength="73" x="584" y="327.5332">balance: int</text><line style="stroke:#181818;stroke-width:0.5;" x1="565" x2="895" y1="334.6094" y2="334.6094"/><ellipse cx="575" cy="348.9141" fill="#84BE84" rx="3" ry="3" style="stroke:#038048;stroke-width:1.0;"/><text fill="#000000" font-family="sans-serif" font-size="14" lengthAdjust="spacing" textLength="144" x="584" y="353.1426">Bank(startBalance: int)</text><ellipse cx="575" cy="366.5234" fill="#84BE84" rx="3" ry="3" style="stroke:#038048;stroke-width:1.0;"/><text fill="#000000" font-family="sans-serif" font-size="14" lengthAdjust="spacing" textLength="305" x="584" y="370.752">giveMoney(player: Player, balance: int): boolean</text><ellipse cx="575" cy="384.1328" fill="#84BE84" rx="3" ry="3" style="stroke:#038048;stroke-width:1.0;"/><text fill="#000000" font-family="sans-serif" font-size="14" lengthAdjust="spacing" textLength="306" x="584" y="388.3613">takeMoney(player: Player, balance: int): boolean</text></g><!--MD5=[7041d92bc0b0ac8c40abaeecb6a5bb5f]
class BoardSpace--><g id="elem_BoardSpace"><rect codeLine="32" fill="#F1F1F1" height="65.6094" id="BoardSpace" rx="2.5" ry="2.5" style="stroke:#181818;stroke-width:0.5;" width="110" x="336" y="537"/><ellipse cx="351" cy="553" fill="#A9DCDF" rx="11" ry="11" style="stroke:#181818;stroke-width:1.0;"/><path d="M353.1875,554.7656 L349.0469,554.7656 L348.625,555.7969 L349.0469,555.7969 Q349.6563,555.7969 349.9219,556.0313 Q350.1875,556.2656 350.1875,556.6563 Q350.1875,557.0313 349.9219,557.2656 Q349.6563,557.5 349.0469,557.5 L346.75,557.5 Q346.1406,557.5 345.8906,557.2656 Q345.625,557.0313 345.625,556.6406 Q345.625,556.2656 345.9063,556.0313 Q346.1719,555.7813 346.7969,555.7969 L349.4688,549.1406 L348.3594,549.1406 Q347.75,549.1406 347.4844,548.9063 Q347.2188,548.6719 347.2188,548.2813 Q347.2188,547.9063 347.4844,547.6719 Q347.75,547.4375 348.3594,547.4375 L352.0313,547.4375 L355.4219,555.7969 Q356.0156,555.7969 356.2031,555.9375 Q356.5938,556.2031 356.5938,556.6563 Q356.5938,557.0313 356.3281,557.2656 Q356.0781,557.5 355.4688,557.5 L353.1719,557.5 Q352.5625,557.5 352.2969,557.2656 Q352.0313,557.0313 352.0313,556.6406 Q352.0313,556.2656 352.2969,556.0313 Q352.5625,555.7969 353.1719,555.7969 L353.5938,555.7969 L353.1875,554.7656 Z M352.4688,553.0625 L351.1094,549.6875 L349.7344,553.0625 L352.4688,553.0625 Z " fill="#000000"/><text fill="#000000" font-family="sans-serif" font-size="14" font-style="italic" lengthAdjust="spacing" textLength="78" x="365" y="558.7285">BoardSpace</text><line style="stroke:#181818;stroke-width:0.5;" x1="337" x2="445" y1="569" y2="569"/><text fill="#000000" font-family="sans-serif" font-size="14" font-style="italic" lengthAdjust="spacing" textLength="80" x="342" y="587.5332">name: String</text><line style="stroke:#181818;stroke-width:0.5;" x1="337" x2="445" y1="594.6094" y2="594.6094"/></g><!--MD5=[1b5d48b144801cc3672613538f63abe3]
class PropertySpace--><g id="elem_PropertySpace"><rect codeLine="36" fill="#F1F1F1" height="136.0469" id="PropertySpace" rx="2.5" ry="2.5" style="stroke:#181818;stroke-width:0.5;" width="294" x="511" y="718.5"/><ellipse cx="606.75" cy="734.5" fill="#ADD1B2" rx="11" ry="11" style="stroke:#181818;stroke-width:1.0;"/><path d="M609.5156,730.375 Q609.6719,730.1563 609.8594,730.0469 Q610.0469,729.9375 610.2656,729.9375 Q610.6406,729.9375 610.875,730.2031 Q611.1094,730.4531 611.1094,731.0625 L611.1094,732.5156 Q611.1094,733.125 610.875,733.3906 Q610.6406,733.6563 610.2656,733.6563 Q609.9219,733.6563 609.7188,733.4531 Q609.5156,733.2656 609.4063,732.75 Q609.3594,732.3906 609.1719,732.2031 Q608.8438,731.8281 608.2344,731.6094 Q607.625,731.3906 607,731.3906 Q606.2344,731.3906 605.5938,731.7188 Q604.9688,732.0469 604.4688,732.7969 Q603.9844,733.5469 603.9844,734.5781 L603.9844,735.6719 Q603.9844,736.9063 604.875,737.7344 Q605.7656,738.5469 607.3594,738.5469 Q608.2969,738.5469 608.9531,738.2969 Q609.3438,738.1406 609.7656,737.7031 Q610.0313,737.4375 610.1719,737.3594 Q610.3281,737.2813 610.5313,737.2813 Q610.8594,737.2813 611.1094,737.5469 Q611.375,737.7969 611.375,738.1406 Q611.375,738.4844 611.0313,738.8906 Q610.5313,739.4688 609.7344,739.7969 Q608.6563,740.25 607.3594,740.25 Q605.8438,740.25 604.6406,739.625 Q603.6563,739.125 602.9688,738.0625 Q602.2813,736.9844 602.2813,735.7031 L602.2813,734.5469 Q602.2813,733.2188 602.8906,732.0781 Q603.5156,730.9219 604.6094,730.3125 Q605.7031,729.6875 606.9375,729.6875 Q607.6719,729.6875 608.3125,729.8594 Q608.9688,730.0156 609.5156,730.375 Z " fill="#000000"/><text fill="#000000" font-family="sans-serif" font-size="14" lengthAdjust="spacing" textLength="94" x="627.25" y="740.2285">PropertySpace</text><line style="stroke:#181818;stroke-width:0.5;" x1="512" x2="804" y1="750.5" y2="750.5"/><rect fill="none" height="6" style="stroke:#C82930;stroke-width:1.0;" width="6" x="519" y="761.8047"/><text fill="#000000" font-family="sans-serif" font-size="14" lengthAdjust="spacing" textLength="54" x="531" y="769.0332">price: int</text><rect fill="none" height="6" style="stroke:#C82930;stroke-width:1.0;" width="6" x="519" y="779.4141"/><text fill="#000000" font-family="sans-serif" font-size="14" lengthAdjust="spacing" textLength="86" x="531" y="786.6426">owner: Player</text><rect fill="none" height="6" style="stroke:#C82930;stroke-width:1.0;" width="6" x="519" y="797.0234"/><text fill="#000000" font-family="sans-serif" font-size="14" lengthAdjust="spacing" textLength="73" x="531" y="804.252">color: Color</text><line style="stroke:#181818;stroke-width:0.5;" x1="512" x2="804" y1="811.3281" y2="811.3281"/><ellipse cx="522" cy="825.6328" fill="#84BE84" rx="3" ry="3" style="stroke:#038048;stroke-width:1.0;"/><text fill="#000000" font-family="sans-serif" font-size="14" lengthAdjust="spacing" textLength="268" x="531" y="829.8613">PropertySpace(name: String, price: String)</text><ellipse cx="522" cy="843.2422" fill="#84BE84" rx="3" ry="3" style="stroke:#038048;stroke-width:1.0;"/><text fill="#000000" font-family="sans-serif" font-size="14" lengthAdjust="spacing" textLength="83" x="531" y="847.4707">getRent(): int</text></g><!--MD5=[18eee71c88ab61f27581b8cbdd3ef5ee]
class Color--><g id="elem_Color"><rect codeLine="44" fill="#F1F1F1" height="153.6563" id="Color" rx="2.5" ry="2.5" style="stroke:#181818;stroke-width:0.5;" width="95" x="610.5" y="943"/><ellipse cx="638.55" cy="959" fill="#EB937F" rx="11" ry="11" style="stroke:#181818;stroke-width:1.0;"/><path d="M637.4094,959.7969 L637.4094,962.2969 L641.7375,962.2969 L641.7375,961.375 Q641.7375,960.7656 641.9719,960.5 Q642.2219,960.2344 642.5969,960.2344 Q642.9719,960.2344 643.2063,960.5 Q643.4406,960.7656 643.4406,961.375 L643.4406,964 L635.4406,964 Q634.8156,964 634.55,963.7656 Q634.3,963.5313 634.3,963.1406 Q634.3,962.7656 634.5656,962.5313 Q634.8313,962.2969 635.4406,962.2969 L635.7063,962.2969 L635.7063,955.6406 L635.4406,955.6406 Q634.8156,955.6406 634.55,955.4063 Q634.3,955.1719 634.3,954.7813 Q634.3,954.4063 634.55,954.1719 Q634.8156,953.9375 635.4406,953.9375 L643.0656,953.9375 L643.0656,956.5313 Q643.0656,957.1406 642.8313,957.4063 Q642.6125,957.6563 642.2219,957.6563 Q641.8469,957.6563 641.6125,957.4063 Q641.3781,957.1406 641.3781,956.5313 L641.3781,955.6406 L637.4094,955.6406 L637.4094,958.0938 L638.8938,958.0938 Q638.8938,957.4375 639.0188,957.25 Q639.2844,956.8438 639.7531,956.8438 Q640.1281,956.8438 640.3625,957.1094 Q640.5969,957.3594 640.5969,957.9688 L640.5969,959.9375 Q640.5969,960.4844 640.4719,960.6719 Q640.2063,961.0625 639.7531,961.0625 Q639.2844,961.0625 639.0188,960.6563 Q638.8938,960.4688 638.8938,959.7969 L637.4094,959.7969 Z " fill="#000000"/><text fill="#000000" font-family="sans-serif" font-size="14" lengthAdjust="spacing" textLength="34" x="655.45" y="964.7285">Color</text><line style="stroke:#181818;stroke-width:0.5;" x1="611.5" x2="704.5" y1="975" y2="975"/><text fill="#000000" font-family="sans-serif" font-size="14" lengthAdjust="spacing" textLength="59" x="616.5" y="993.5332">ORANGE</text><text fill="#000000" font-family="sans-serif" font-size="14" lengthAdjust="spacing" textLength="48" x="616.5" y="1011.1426">GREEN</text><text fill="#000000" font-family="sans-serif" font-size="14" lengthAdjust="spacing" textLength="83" x="616.5" y="1028.752">LIGHT_BLUE</text><text fill="#000000" font-family="sans-serif" font-size="14" lengthAdjust="spacing" textLength="81" x="616.5" y="1046.3613">DARK_BLUE</text><text fill="#000000" font-family="sans-serif" font-size="14" lengthAdjust="spacing" textLength="30" x="616.5" y="1063.9707">PINK</text><text fill="#000000" font-family="sans-serif" font-size="14" lengthAdjust="spacing" textLength="29" x="616.5" y="1081.5801">RED</text><line style="stroke:#181818;stroke-width:0.5;" x1="611.5" x2="704.5" y1="1088.6563" y2="1088.6563"/></g><!--MD5=[6df681ae0d0fa359164ce361178aad38]
class JailSpace--><g id="elem_JailSpace"><rect codeLine="53" fill="#F1F1F1" height="65.6094" id="JailSpace" rx="2.5" ry="2.5" style="stroke:#181818;stroke-width:0.5;" width="148" x="7" y="753"/><ellipse cx="47.2" cy="769" fill="#ADD1B2" rx="11" ry="11" style="stroke:#181818;stroke-width:1.0;"/><path d="M49.9656,764.875 Q50.1219,764.6563 50.3094,764.5469 Q50.4969,764.4375 50.7156,764.4375 Q51.0906,764.4375 51.325,764.7031 Q51.5594,764.9531 51.5594,765.5625 L51.5594,767.0156 Q51.5594,767.625 51.325,767.8906 Q51.0906,768.1563 50.7156,768.1563 Q50.3719,768.1563 50.1688,767.9531 Q49.9656,767.7656 49.8563,767.25 Q49.8094,766.8906 49.6219,766.7031 Q49.2938,766.3281 48.6844,766.1094 Q48.075,765.8906 47.45,765.8906 Q46.6844,765.8906 46.0438,766.2188 Q45.4188,766.5469 44.9188,767.2969 Q44.4344,768.0469 44.4344,769.0781 L44.4344,770.1719 Q44.4344,771.4063 45.325,772.2344 Q46.2156,773.0469 47.8094,773.0469 Q48.7469,773.0469 49.4031,772.7969 Q49.7938,772.6406 50.2156,772.2031 Q50.4813,771.9375 50.6219,771.8594 Q50.7781,771.7813 50.9813,771.7813 Q51.3094,771.7813 51.5594,772.0469 Q51.825,772.2969 51.825,772.6406 Q51.825,772.9844 51.4813,773.3906 Q50.9813,773.9688 50.1844,774.2969 Q49.1063,774.75 47.8094,774.75 Q46.2938,774.75 45.0906,774.125 Q44.1063,773.625 43.4188,772.5625 Q42.7313,771.4844 42.7313,770.2031 L42.7313,769.0469 Q42.7313,767.7188 43.3406,766.5781 Q43.9656,765.4219 45.0594,764.8125 Q46.1531,764.1875 47.3875,764.1875 Q48.1219,764.1875 48.7625,764.3594 Q49.4188,764.5156 49.9656,764.875 Z " fill="#000000"/><text fill="#000000" font-family="sans-serif" font-size="14" lengthAdjust="spacing" textLength="60" x="66.8" y="774.7285">JailSpace</text><line style="stroke:#181818;stroke-width:0.5;" x1="8" x2="154" y1="785" y2="785"/><text fill="#000000" font-family="sans-serif" font-size="14" lengthAdjust="spacing" textLength="136" x="13" y="803.5332">jailedPlayers: Player[]</text><line style="stroke:#181818;stroke-width:0.5;" x1="8" x2="154" y1="810.6094" y2="810.6094"/></g><!--MD5=[ea77db9f2ba3e01ef0f81d2720f90085]
class ChanceSpace--><g id="elem_ChanceSpace"><rect codeLine="57" fill="#F1F1F1" height="48" id="ChanceSpace" rx="2.5" ry="2.5" style="stroke:#181818;stroke-width:0.5;" width="121" x="190.5" y="762"/><ellipse cx="205.5" cy="778" fill="#ADD1B2" rx="11" ry="11" style="stroke:#181818;stroke-width:1.0;"/><path d="M208.2656,773.875 Q208.4219,773.6563 208.6094,773.5469 Q208.7969,773.4375 209.0156,773.4375 Q209.3906,773.4375 209.625,773.7031 Q209.8594,773.9531 209.8594,774.5625 L209.8594,776.0156 Q209.8594,776.625 209.625,776.8906 Q209.3906,777.1563 209.0156,777.1563 Q208.6719,777.1563 208.4688,776.9531 Q208.2656,776.7656 208.1563,776.25 Q208.1094,775.8906 207.9219,775.7031 Q207.5938,775.3281 206.9844,775.1094 Q206.375,774.8906 205.75,774.8906 Q204.9844,774.8906 204.3438,775.2188 Q203.7188,775.5469 203.2188,776.2969 Q202.7344,777.0469 202.7344,778.0781 L202.7344,779.1719 Q202.7344,780.4063 203.625,781.2344 Q204.5156,782.0469 206.1094,782.0469 Q207.0469,782.0469 207.7031,781.7969 Q208.0938,781.6406 208.5156,781.2031 Q208.7813,780.9375 208.9219,780.8594 Q209.0781,780.7813 209.2813,780.7813 Q209.6094,780.7813 209.8594,781.0469 Q210.125,781.2969 210.125,781.6406 Q210.125,781.9844 209.7813,782.3906 Q209.2813,782.9688 208.4844,783.2969 Q207.4063,783.75 206.1094,783.75 Q204.5938,783.75 203.3906,783.125 Q202.4063,782.625 201.7188,781.5625 Q201.0313,780.4844 201.0313,779.2031 L201.0313,778.0469 Q201.0313,776.7188 201.6406,775.5781 Q202.2656,774.4219 203.3594,773.8125 Q204.4531,773.1875 205.6875,773.1875 Q206.4219,773.1875 207.0625,773.3594 Q207.7188,773.5156 208.2656,773.875 Z " fill="#000000"/><text fill="#000000" font-family="sans-serif" font-size="14" lengthAdjust="spacing" textLength="89" x="219.5" y="783.7285">ChanceSpace</text><line style="stroke:#181818;stroke-width:0.5;" x1="191.5" x2="310.5" y1="794" y2="794"/><line style="stroke:#181818;stroke-width:0.5;" x1="191.5" x2="310.5" y1="802" y2="802"/></g><!--MD5=[4fb68e57dc687e293a72627ce02b134c]
class ChanceCards--><g id="elem_ChanceCards"><rect codeLine="59" fill="#F1F1F1" height="118.4375" id="ChanceCards" rx="2.5" ry="2.5" style="stroke:#181818;stroke-width:0.5;" width="213" x="1115.5" y="511"/><ellipse cx="1174.25" cy="527" fill="#ADD1B2" rx="11" ry="11" style="stroke:#181818;stroke-width:1.0;"/><path d="M1177.0156,522.875 Q1177.1719,522.6563 1177.3594,522.5469 Q1177.5469,522.4375 1177.7656,522.4375 Q1178.1406,522.4375 1178.375,522.7031 Q1178.6094,522.9531 1178.6094,523.5625 L1178.6094,525.0156 Q1178.6094,525.625 1178.375,525.8906 Q1178.1406,526.1563 1177.7656,526.1563 Q1177.4219,526.1563 1177.2188,525.9531 Q1177.0156,525.7656 1176.9063,525.25 Q1176.8594,524.8906 1176.6719,524.7031 Q1176.3438,524.3281 1175.7344,524.1094 Q1175.125,523.8906 1174.5,523.8906 Q1173.7344,523.8906 1173.0938,524.2188 Q1172.4688,524.5469 1171.9688,525.2969 Q1171.4844,526.0469 1171.4844,527.0781 L1171.4844,528.1719 Q1171.4844,529.4063 1172.375,530.2344 Q1173.2656,531.0469 1174.8594,531.0469 Q1175.7969,531.0469 1176.4531,530.7969 Q1176.8438,530.6406 1177.2656,530.2031 Q1177.5313,529.9375 1177.6719,529.8594 Q1177.8281,529.7813 1178.0313,529.7813 Q1178.3594,529.7813 1178.6094,530.0469 Q1178.875,530.2969 1178.875,530.6406 Q1178.875,530.9844 1178.5313,531.3906 Q1178.0313,531.9688 1177.2344,532.2969 Q1176.1563,532.75 1174.8594,532.75 Q1173.3438,532.75 1172.1406,532.125 Q1171.1563,531.625 1170.4688,530.5625 Q1169.7813,529.4844 1169.7813,528.2031 L1169.7813,527.0469 Q1169.7813,525.7188 1170.3906,524.5781 Q1171.0156,523.4219 1172.1094,522.8125 Q1173.2031,522.1875 1174.4375,522.1875 Q1175.1719,522.1875 1175.8125,522.3594 Q1176.4688,522.5156 1177.0156,522.875 Z " fill="#000000"/><text fill="#000000" font-family="sans-serif" font-size="14" lengthAdjust="spacing" textLength="87" x="1194.75" y="532.7285">ChanceCards</text><line style="stroke:#181818;stroke-width:0.5;" x1="1116.5" x2="1327.5" y1="543" y2="543"/><rect fill="none" height="6" style="stroke:#C82930;stroke-width:1.0;" width="6" x="1123.5" y="554.3047"/><text fill="#000000" font-family="sans-serif" font-size="14" lengthAdjust="spacing" textLength="56" x="1135.5" y="561.5332">index: int</text><rect fill="none" height="6" style="stroke:#C82930;stroke-width:1.0;" width="6" x="1123.5" y="571.9141"/><text fill="#000000" font-family="sans-serif" font-size="14" lengthAdjust="spacing" textLength="65" x="1135.5" y="579.1426">order: int[]</text><line style="stroke:#181818;stroke-width:0.5;" x1="1116.5" x2="1327.5" y1="586.2188" y2="586.2188"/><ellipse cx="1126.5" cy="600.5234" fill="#84BE84" rx="3" ry="3" style="stroke:#038048;stroke-width:1.0;"/><text fill="#000000" font-family="sans-serif" font-size="14" lengthAdjust="spacing" textLength="97" x="1135.5" y="604.752">ChanceCards()</text><ellipse cx="1126.5" cy="618.1328" fill="#84BE84" rx="3" ry="3" style="stroke:#038048;stroke-width:1.0;"/><text fill="#000000" font-family="sans-serif" font-size="14" lengthAdjust="spacing" textLength="187" x="1135.5" y="622.3613">pickCard(player: Player): void</text></g><!--MD5=[22c35b2018278380345807461f8e26b0]
class GameBoard--><g id="elem_GameBoard"><rect codeLine="66" fill="#F1F1F1" height="65.6094" id="GameBoard" rx="2.5" ry="2.5" style="stroke:#181818;stroke-width:0.5;" width="196" x="489" y="537.5"/><ellipse cx="544.75" cy="553.5" fill="#ADD1B2" rx="11" ry="11" style="stroke:#181818;stroke-width:1.0;"/><path d="M547.5156,549.375 Q547.6719,549.1563 547.8594,549.0469 Q548.0469,548.9375 548.2656,548.9375 Q548.6406,548.9375 548.875,549.2031 Q549.1094,549.4531 549.1094,550.0625 L549.1094,551.5156 Q549.1094,552.125 548.875,552.3906 Q548.6406,552.6563 548.2656,552.6563 Q547.9219,552.6563 547.7188,552.4531 Q547.5156,552.2656 547.4063,551.75 Q547.3594,551.3906 547.1719,551.2031 Q546.8438,550.8281 546.2344,550.6094 Q545.625,550.3906 545,550.3906 Q544.2344,550.3906 543.5938,550.7188 Q542.9688,551.0469 542.4688,551.7969 Q541.9844,552.5469 541.9844,553.5781 L541.9844,554.6719 Q541.9844,555.9063 542.875,556.7344 Q543.7656,557.5469 545.3594,557.5469 Q546.2969,557.5469 546.9531,557.2969 Q547.3438,557.1406 547.7656,556.7031 Q548.0313,556.4375 548.1719,556.3594 Q548.3281,556.2813 548.5313,556.2813 Q548.8594,556.2813 549.1094,556.5469 Q549.375,556.7969 549.375,557.1406 Q549.375,557.4844 549.0313,557.8906 Q548.5313,558.4688 547.7344,558.7969 Q546.6563,559.25 545.3594,559.25 Q543.8438,559.25 542.6406,558.625 Q541.6563,558.125 540.9688,557.0625 Q540.2813,555.9844 540.2813,554.7031 L540.2813,553.5469 Q540.2813,552.2188 540.8906,551.0781 Q541.5156,549.9219 542.6094,549.3125 Q543.7031,548.6875 544.9375,548.6875 Q545.6719,548.6875 546.3125,548.8594 Q546.9688,549.0156 547.5156,549.375 Z " fill="#000000"/><text fill="#000000" font-family="sans-serif" font-size="14" lengthAdjust="spacing" textLength="76" x="565.25" y="559.2285">GameBoard</text><line style="stroke:#181818;stroke-width:0.5;" x1="490" x2="684" y1="569.5" y2="569.5"/><rect fill="none" height="6" style="stroke:#C82930;stroke-width:1.0;" width="6" x="497" y="580.8047"/><text fill="#000000" font-family="sans-serif" font-size="14" lengthAdjust="spacing" textLength="170" x="509" y="588.0332">boardSpaces: BoardSpace</text><line style="stroke:#181818;stroke-width:0.5;" x1="490" x2="684" y1="595.1094" y2="595.1094"/></g><!--MD5=[f7a9ae25cb0ac60c5f03b7bfd778cce3]
class Dice--><g id="elem_Dice"><rect codeLine="70" fill="#F1F1F1" height="136.0469" id="Dice" rx="2.5" ry="2.5" style="stroke:#181818;stroke-width:0.5;" width="120" x="931" y="268"/><ellipse cx="973" cy="284" fill="#ADD1B2" rx="11" ry="11" style="stroke:#181818;stroke-width:1.0;"/><path d="M975.7656,279.875 Q975.9219,279.6563 976.1094,279.5469 Q976.2969,279.4375 976.5156,279.4375 Q976.8906,279.4375 977.125,279.7031 Q977.3594,279.9531 977.3594,280.5625 L977.3594,282.0156 Q977.3594,282.625 977.125,282.8906 Q976.8906,283.1563 976.5156,283.1563 Q976.1719,283.1563 975.9688,282.9531 Q975.7656,282.7656 975.6563,282.25 Q975.6094,281.8906 975.4219,281.7031 Q975.0938,281.3281 974.4844,281.1094 Q973.875,280.8906 973.25,280.8906 Q972.4844,280.8906 971.8438,281.2188 Q971.2188,281.5469 970.7188,282.2969 Q970.2344,283.0469 970.2344,284.0781 L970.2344,285.1719 Q970.2344,286.4063 971.125,287.2344 Q972.0156,288.0469 973.6094,288.0469 Q974.5469,288.0469 975.2031,287.7969 Q975.5938,287.6406 976.0156,287.2031 Q976.2813,286.9375 976.4219,286.8594 Q976.5781,286.7813 976.7813,286.7813 Q977.1094,286.7813 977.3594,287.0469 Q977.625,287.2969 977.625,287.6406 Q977.625,287.9844 977.2813,288.3906 Q976.7813,288.9688 975.9844,289.2969 Q974.9063,289.75 973.6094,289.75 Q972.0938,289.75 970.8906,289.125 Q969.9063,288.625 969.2188,287.5625 Q968.5313,286.4844 968.5313,285.2031 L968.5313,284.0469 Q968.5313,282.7188 969.1406,281.5781 Q969.7656,280.4219 970.8594,279.8125 Q971.9531,279.1875 973.1875,279.1875 Q973.9219,279.1875 974.5625,279.3594 Q975.2188,279.5156 975.7656,279.875 Z " fill="#000000"/><text fill="#000000" font-family="sans-serif" font-size="14" lengthAdjust="spacing" textLength="28" x="993" y="289.7285">Dice</text><line style="stroke:#181818;stroke-width:0.5;" x1="932" x2="1050" y1="300" y2="300"/><rect fill="none" height="6" style="stroke:#C82930;stroke-width:1.0;" width="6" x="939" y="311.3047"/><text fill="#000000" font-family="sans-serif" font-size="14" lengthAdjust="spacing" textLength="56" x="951" y="318.5332">sides: int</text><rect fill="none" height="6" style="stroke:#C82930;stroke-width:1.0;" width="6" x="939" y="328.9141"/><text fill="#000000" font-family="sans-serif" font-size="14" lengthAdjust="spacing" textLength="57" x="951" y="336.1426">value: int</text><line style="stroke:#181818;stroke-width:0.5;" x1="932" x2="1050" y1="343.2188" y2="343.2188"/><ellipse cx="942" cy="357.5234" fill="#84BE84" rx="3" ry="3" style="stroke:#038048;stroke-width:1.0;"/><text fill="#000000" font-family="sans-serif" font-size="14" lengthAdjust="spacing" textLength="94" x="951" y="361.752">Dice(sides: int)</text><ellipse cx="942" cy="375.1328" fill="#84BE84" rx="3" ry="3" style="stroke:#038048;stroke-width:1.0;"/><text fill="#000000" font-family="sans-serif" font-size="14" lengthAdjust="spacing" textLength="91" x="951" y="379.3613">rollDice(): void</text><ellipse cx="942" cy="392.7422" fill="#84BE84" rx="3" ry="3" style="stroke:#038048;stroke-width:1.0;"/><text fill="#000000" font-family="sans-serif" font-size="14" lengthAdjust="spacing" textLength="89" x="951" y="396.9707">getValue(): int</text></g><!--MD5=[81192f50881fb0e81f0e4c398a4170ca]
class PassiveSpace--><g id="elem_PassiveSpace"><rect fill="#F1F1F1" height="48" id="PassiveSpace" rx="2.5" ry="2.5" style="stroke:#181818;stroke-width:0.5;" width="121" x="346.5" y="762"/><ellipse cx="361.5" cy="778" fill="#ADD1B2" rx="11" ry="11" style="stroke:#181818;stroke-width:1.0;"/><path d="M364.2656,773.875 Q364.4219,773.6563 364.6094,773.5469 Q364.7969,773.4375 365.0156,773.4375 Q365.3906,773.4375 365.625,773.7031 Q365.8594,773.9531 365.8594,774.5625 L365.8594,776.0156 Q365.8594,776.625 365.625,776.8906 Q365.3906,777.1563 365.0156,777.1563 Q364.6719,777.1563 364.4688,776.9531 Q364.2656,776.7656 364.1563,776.25 Q364.1094,775.8906 363.9219,775.7031 Q363.5938,775.3281 362.9844,775.1094 Q362.375,774.8906 361.75,774.8906 Q360.9844,774.8906 360.3438,775.2188 Q359.7188,775.5469 359.2188,776.2969 Q358.7344,777.0469 358.7344,778.0781 L358.7344,779.1719 Q358.7344,780.4063 359.625,781.2344 Q360.5156,782.0469 362.1094,782.0469 Q363.0469,782.0469 363.7031,781.7969 Q364.0938,781.6406 364.5156,781.2031 Q364.7813,780.9375 364.9219,780.8594 Q365.0781,780.7813 365.2813,780.7813 Q365.6094,780.7813 365.8594,781.0469 Q366.125,781.2969 366.125,781.6406 Q366.125,781.9844 365.7813,782.3906 Q365.2813,782.9688 364.4844,783.2969 Q363.4063,783.75 362.1094,783.75 Q360.5938,783.75 359.3906,783.125 Q358.4063,782.625 357.7188,781.5625 Q357.0313,780.4844 357.0313,779.2031 L357.0313,778.0469 Q357.0313,776.7188 357.6406,775.5781 Q358.2656,774.4219 359.3594,773.8125 Q360.4531,773.1875 361.6875,773.1875 Q362.4219,773.1875 363.0625,773.3594 Q363.7188,773.5156 364.2656,773.875 Z " fill="#000000"/><text fill="#000000" font-family="sans-serif" font-size="14" lengthAdjust="spacing" textLength="89" x="375.5" y="783.7285">PassiveSpace</text><line style="stroke:#181818;stroke-width:0.5;" x1="347.5" x2="466.5" y1="794" y2="794"/><line style="stroke:#181818;stroke-width:0.5;" x1="347.5" x2="466.5" y1="802" y2="802"/></g><!--MD5=[69cd7bb0186966cdb12d6f14492428f2]
class GameLogic--><g id="elem_GameLogic"><rect codeLine="86" fill="#F1F1F1" height="188.875" id="GameLogic" rx="2.5" ry="2.5" style="stroke:#181818;stroke-width:0.5;" width="205" x="887.5" y="693"/><ellipse cx="949.75" cy="709" fill="#ADD1B2" rx="11" ry="11" style="stroke:#181818;stroke-width:1.0;"/><path d="M952.5156,704.875 Q952.6719,704.6563 952.8594,704.5469 Q953.0469,704.4375 953.2656,704.4375 Q953.6406,704.4375 953.875,704.7031 Q954.1094,704.9531 954.1094,705.5625 L954.1094,707.0156 Q954.1094,707.625 953.875,707.8906 Q953.6406,708.1563 953.2656,708.1563 Q952.9219,708.1563 952.7188,707.9531 Q952.5156,707.7656 952.4063,707.25 Q952.3594,706.8906 952.1719,706.7031 Q951.8438,706.3281 951.2344,706.1094 Q950.625,705.8906 950,705.8906 Q949.2344,705.8906 948.5938,706.2188 Q947.9688,706.5469 947.4688,707.2969 Q946.9844,708.0469 946.9844,709.0781 L946.9844,710.1719 Q946.9844,711.4063 947.875,712.2344 Q948.7656,713.0469 950.3594,713.0469 Q951.2969,713.0469 951.9531,712.7969 Q952.3438,712.6406 952.7656,712.2031 Q953.0313,711.9375 953.1719,711.8594 Q953.3281,711.7813 953.5313,711.7813 Q953.8594,711.7813 954.1094,712.0469 Q954.375,712.2969 954.375,712.6406 Q954.375,712.9844 954.0313,713.3906 Q953.5313,713.9688 952.7344,714.2969 Q951.6563,714.75 950.3594,714.75 Q948.8438,714.75 947.6406,714.125 Q946.6563,713.625 945.9688,712.5625 Q945.2813,711.4844 945.2813,710.2031 L945.2813,709.0469 Q945.2813,707.7188 945.8906,706.5781 Q946.5156,705.4219 947.6094,704.8125 Q948.7031,704.1875 949.9375,704.1875 Q950.6719,704.1875 951.3125,704.3594 Q951.9688,704.5156 952.5156,704.875 Z " fill="#000000"/><text fill="#000000" font-family="sans-serif" font-size="14" lengthAdjust="spacing" textLength="72" x="970.25" y="714.7285">GameLogic</text><line style="stroke:#181818;stroke-width:0.5;" x1="888.5" x2="1091.5" y1="725" y2="725"/><rect fill="none" height="6" style="stroke:#C82930;stroke-width:1.0;" width="6" x="895.5" y="736.3047"/><text fill="#000000" font-family="sans-serif" font-size="14" lengthAdjust="spacing" textLength="179" x="907.5" y="743.5332">chanceCards: ChanceCards</text><rect fill="none" height="6" style="stroke:#C82930;stroke-width:1.0;" width="6" x="895.5" y="753.9141"/><text fill="#000000" font-family="sans-serif" font-size="14" lengthAdjust="spacing" textLength="102" x="907.5" y="761.1426">players: Player[]</text><rect fill="none" height="6" style="stroke:#C82930;stroke-width:1.0;" width="6" x="895.5" y="771.5234"/><text fill="#000000" font-family="sans-serif" font-size="14" lengthAdjust="spacing" textLength="48" x="907.5" y="778.752">turn: int</text><rect fill="none" height="6" style="stroke:#C82930;stroke-width:1.0;" width="6" x="895.5" y="789.1328"/><text fill="#000000" font-family="sans-serif" font-size="14" lengthAdjust="spacing" textLength="157" x="907.5" y="796.3613">gameBoard: GameBoard</text><rect fill="none" height="6" style="stroke:#C82930;stroke-width:1.0;" width="6" x="895.5" y="806.7422"/><text fill="#000000" font-family="sans-serif" font-size="14" lengthAdjust="spacing" textLength="62" x="907.5" y="813.9707">dice: Dice</text><line style="stroke:#181818;stroke-width:0.5;" x1="888.5" x2="1091.5" y1="821.0469" y2="821.0469"/><ellipse cx="898.5" cy="835.3516" fill="#84BE84" rx="3" ry="3" style="stroke:#038048;stroke-width:1.0;"/><text fill="#000000" font-family="sans-serif" font-size="14" lengthAdjust="spacing" textLength="151" x="907.5" y="839.5801">GameLogic(players: int)</text><ellipse cx="898.5" cy="852.9609" fill="#84BE84" rx="3" ry="3" style="stroke:#038048;stroke-width:1.0;"/><text fill="#000000" font-family="sans-serif" font-size="14" lengthAdjust="spacing" textLength="100" x="907.5" y="857.1895">playTurn(): void</text><ellipse cx="898.5" cy="870.5703" fill="#84BE84" rx="3" ry="3" style="stroke:#038048;stroke-width:1.0;"/><text fill="#000000" font-family="sans-serif" font-size="14" lengthAdjust="spacing" textLength="112" x="907.5" y="874.7988">switchTurn(): void</text></g><!--MD5=[ff23374bb381ff0c5fca3c3bc255c353]
class ConsoleGame--><g id="elem_ConsoleGame"><rect codeLine="103" fill="#F1F1F1" height="83.2188" id="ConsoleGame" rx="2.5" ry="2.5" style="stroke:#181818;stroke-width:0.5;" width="195" x="892.5" y="978.5"/><ellipse cx="940.75" cy="994.5" fill="#ADD1B2" rx="11" ry="11" style="stroke:#181818;stroke-width:1.0;"/><path d="M943.5156,990.375 Q943.6719,990.1563 943.8594,990.0469 Q944.0469,989.9375 944.2656,989.9375 Q944.6406,989.9375 944.875,990.2031 Q945.1094,990.4531 945.1094,991.0625 L945.1094,992.5156 Q945.1094,993.125 944.875,993.3906 Q944.6406,993.6563 944.2656,993.6563 Q943.9219,993.6563 943.7188,993.4531 Q943.5156,993.2656 943.4063,992.75 Q943.3594,992.3906 943.1719,992.2031 Q942.8438,991.8281 942.2344,991.6094 Q941.625,991.3906 941,991.3906 Q940.2344,991.3906 939.5938,991.7188 Q938.9688,992.0469 938.4688,992.7969 Q937.9844,993.5469 937.9844,994.5781 L937.9844,995.6719 Q937.9844,996.9063 938.875,997.7344 Q939.7656,998.5469 941.3594,998.5469 Q942.2969,998.5469 942.9531,998.2969 Q943.3438,998.1406 943.7656,997.7031 Q944.0313,997.4375 944.1719,997.3594 Q944.3281,997.2813 944.5313,997.2813 Q944.8594,997.2813 945.1094,997.5469 Q945.375,997.7969 945.375,998.1406 Q945.375,998.4844 945.0313,998.8906 Q944.5313,999.4688 943.7344,999.7969 Q942.6563,1000.25 941.3594,1000.25 Q939.8438,1000.25 938.6406,999.625 Q937.6563,999.125 936.9688,998.0625 Q936.2813,996.9844 936.2813,995.7031 L936.2813,994.5469 Q936.2813,993.2188 936.8906,992.0781 Q937.5156,990.9219 938.6094,990.3125 Q939.7031,989.6875 940.9375,989.6875 Q941.6719,989.6875 942.3125,989.8594 Q942.9688,990.0156 943.5156,990.375 Z " fill="#000000"/><text fill="#000000" font-family="sans-serif" font-size="14" lengthAdjust="spacing" textLength="90" x="961.25" y="1000.2285">ConsoleGame</text><line style="stroke:#181818;stroke-width:0.5;" x1="893.5" x2="1086.5" y1="1010.5" y2="1010.5"/><line style="stroke:#181818;stroke-width:0.5;" x1="893.5" x2="1086.5" y1="1018.5" y2="1018.5"/><ellipse cx="903.5" cy="1032.8047" fill="#84BE84" rx="3" ry="3" style="stroke:#038048;stroke-width:1.0;"/><text fill="#000000" font-family="sans-serif" font-size="14" lengthAdjust="spacing" textLength="169" x="912.5" y="1037.0332">ConsoleGame(players: int)</text><ellipse cx="903.5" cy="1050.4141" fill="#84BE84" rx="3" ry="3" style="stroke:#038048;stroke-width:1.0;"/><text fill="#000000" font-family="sans-serif" font-size="14" lengthAdjust="spacing" textLength="110" x="912.5" y="1054.6426">startGame(): void</text></g><!--MD5=[c6fce608a0a6707a5680a80d12713d33]
link Account to Player--><g id="link_Account_Player"><path codeLine="23" d="M1354.78,149.34 C1377.77,169.31 1399.19,193.43 1412,221 C1429.93,259.57 1455.17,315.91 1418.34,320.68 " fill="none" id="Account-to-Player" style="stroke:#181818;stroke-width:1.0;"/><polygon fill="#181818" points="1413,321,1422.2338,324.4259,1417.9901,320.6854,1421.7305,316.4417,1413,321" style="stroke:#181818;stroke-width:1.0;"/></g><!--MD5=[3db6072a2faf2d26f66081055df0347f]
reverse link PropertySpace to Color--><g id="link_PropertySpace_Color"><path codeLine="78" d="M811.21,799.16 C886.13,803.9 774.74,914.95 705.78,977.36 " fill="none" id="PropertySpace-backto-Color" style="stroke:#181818;stroke-width:1.0;"/><polygon fill="#181818" points="806,799,814.8699,803.2807,810.9975,799.1571,815.1212,795.2847,806,799" style="stroke:#181818;stroke-width:1.0;"/></g><!--MD5=[998189bbc929b6f400c4f3e60758b9ed]
reverse link BoardSpace to PropertySpace--><g id="link_BoardSpace_PropertySpace"><path codeLine="80" d="M446.74,615.93 C452.23,620.35 457.72,624.76 463,629 C497.82,656.95 536.19,687.67 569.61,714.39 " fill="none" id="BoardSpace-backto-PropertySpace" style="stroke:#181818;stroke-width:1.0;"/><polygon fill="none" points="442.16,621.23,430.97,603.24,450.94,610.33,442.16,621.23" style="stroke:#181818;stroke-width:1.0;"/></g><!--MD5=[dfb1754723e38189f8d0ac9c7de8e132]
reverse link BoardSpace to ChanceSpace--><g id="link_BoardSpace_ChanceSpace"><path codeLine="81" d="M358.99,619.92 C329.87,664.44 288.16,728.2 266.06,761.97 " fill="none" id="BoardSpace-backto-ChanceSpace" style="stroke:#181818;stroke-width:1.0;"/><polygon fill="none" points="353.23,615.94,370.04,603.04,364.95,623.61,353.23,615.94" style="stroke:#181818;stroke-width:1.0;"/></g><!--MD5=[6092523c88bf9fb8782fc6ce8c40a44c]
reverse link BoardSpace to JailSpace--><g id="link_BoardSpace_JailSpace"><path codeLine="82" d="M317.41,603.71 C273.46,624.94 217.67,654.94 173,689 C148.58,707.61 124.71,732.8 107.4,752.7 " fill="none" id="BoardSpace-backto-JailSpace" style="stroke:#181818;stroke-width:1.0;"/><polygon fill="none" points="314.7,597.25,335.77,595.02,320.69,609.91,314.7,597.25" style="stroke:#181818;stroke-width:1.0;"/></g><!--MD5=[428b096b2392eadb63c2181922088f72]
reverse link BoardSpace to PassiveSpace--><g id="link_BoardSpace_PassiveSpace"><path codeLine="83" d="M394.9,623.22 C398.22,667.54 402.82,729.03 405.28,761.97 " fill="none" id="BoardSpace-backto-PassiveSpace" style="stroke:#181818;stroke-width:1.0;"/><polygon fill="none" points="387.91,623.5,393.4,603.04,401.87,622.46,387.91,623.5" style="stroke:#181818;stroke-width:1.0;"/></g><!--MD5=[cc1d7ce45d81e5fca024e18d1dca112c]
link BoardSpace to GameBoard--><g id="link_BoardSpace_GameBoard"><path codeLine="84" d="M446.15,579.92 C459.76,581.7 474.38,583 488,583 " fill="none" id="BoardSpace-to-GameBoard" style="stroke:#181818;stroke-width:1.0;"/><polygon fill="none" points="" style="stroke:#181818;stroke-width:1.0;"/></g><!--MD5=[64f47c333ca01b3df677b7f5ceb9a8c0]
link ChanceCards to GameLogic--><g id="link_ChanceCards_GameLogic"><path codeLine="97" d="M1203.92,629.06 C1185.57,675.43 1152.21,733.26 1099.19,736.83 " fill="none" id="ChanceCards-to-GameLogic" style="stroke:#181818;stroke-width:1.0;"/><polygon fill="#181818" points="1094,737,1103.1318,740.6893,1098.9971,736.8287,1102.8577,732.694,1094,737" style="stroke:#181818;stroke-width:1.0;"/></g><!--MD5=[b9cb77fd13935584573a460a1acb4d13]
link Bank to GameLogic--><g id="link_Bank_GameLogic"><path codeLine="98" d="M763.72,395.11 C806.22,468.33 879.94,595.36 931.66,684.47 " fill="none" id="Bank-to-GameLogic" style="stroke:#181818;stroke-width:1.0;"/><polygon fill="#181818" points="934.26,688.95,933.1984,679.1585,931.7486,684.6265,926.2807,683.1767,934.26,688.95" style="stroke:#181818;stroke-width:1.0;"/></g><!--MD5=[a06078b96abfc18dc03b0f0b54d6bdd3]
link Player to GameLogic--><g id="link_Player_GameLogic"><path codeLine="99" d="M1132.09,451.02 C1118.29,469.7 1106.24,489.89 1098,511 C1095.76,516.75 1099.91,715.02 1095.49,749.05 " fill="none" id="Player-to-GameLogic" style="stroke:#181818;stroke-width:1.0;"/><polygon fill="#181818" points="1094,754,1100.4215,746.5325,1095.4394,749.2117,1092.7602,744.2295,1094,754" style="stroke:#181818;stroke-width:1.0;"/></g><!--MD5=[1abc75e2182eab2089e7fa791466145c]
link Dice to GameLogic--><g id="link_Dice_GameLogic"><path codeLine="100" d="M990.13,404.16 C991.86,465.64 1000.97,557.63 1036,629 C1052.21,662.02 1079.22,654.9 1093,689 C1111.96,735.92 1144.09,802.15 1099.22,806.75 " fill="none" id="Dice-to-GameLogic" style="stroke:#181818;stroke-width:1.0;"/><polygon fill="#181818" points="1094,807,1103.1835,810.5587,1098.9941,806.7574,1102.7953,802.5681,1094,807" style="stroke:#181818;stroke-width:1.0;"/></g><!--MD5=[5c6d87f11550e209190dfe623d3558a8]
link GameBoard to GameLogic--><g id="link_GameBoard_GameLogic"><path codeLine="101" d="M664.76,606.62 C712.89,629.19 775.66,659.58 830,689 C844.59,696.9 859.74,705.48 874.65,714.15 " fill="none" id="GameBoard-to-GameLogic" style="stroke:#181818;stroke-width:1.0;"/><polygon fill="#181818" points="879.26,716.84,873.5179,708.8382,874.9463,714.3118,869.4727,715.7401,879.26,716.84" style="stroke:#181818;stroke-width:1.0;"/></g><!--MD5=[8c85882bd97567292fc582daa52891ce]
link GameLogic to ConsoleGame--><g id="link_GameLogic_ConsoleGame"><path codeLine="108" d="M990,883.04 C990,914.24 990,947.43 990,973.21 " fill="none" id="GameLogic-to-ConsoleGame" style="stroke:#181818;stroke-width:1.0;"/><polygon fill="#181818" points="990,978.26,994,969.26,990,973.26,986,969.26,990,978.26" style="stroke:#181818;stroke-width:1.0;"/></g><!--MD5=[d42fa365326ecfe661509f857f5355da]
@startuml class_diagram
class Account {
    - balance: int
    + Account(startBalance: int)
    + getBalance(): int
    + addBalance(): boolean
    + subtractBalance() : boolean
    + toString(): String
}

class Player {
    - character: String
    - age: int
    - position: int
    + account: Account
    + Player(name: String age: int, startBalance: int)
    + getName(): String
    + getAge(): int
    + getPosition(): int
    + setPosition(): int
    + toString(): String
}

Account - -> Player::account

class Bank {
    - balance: int
    + Bank(startBalance: int)
    + giveMoney(player: Player, balance: int): boolean
    + takeMoney(player: Player, balance: int): boolean
}

abstract class BoardSpace {
    {abstract} name: String
}

class PropertySpace {
    - price: int
    - owner: Player
    - color: Color
    + PropertySpace(name: String, price: String)
    + getRent(): int
}

enum Color {
    ORANGE
    GREEN
    LIGHT_BLUE
    DARK_BLUE
    PINK
    RED
}

class JailSpace {
    jailedPlayers: Player[]
}

class ChanceSpace {}

class ChanceCards {
    - index: int
    - order: int[]
    + ChanceCards()
    + pickCard(player: Player): void
}

class GameBoard {
    - boardSpaces: BoardSpace
}

class Dice {
    - sides: int
    - value: int
    + Dice(sides: int)
    + rollDice(): void
    + getValue(): int
}

PropertySpace::color <- - Color

BoardSpace <|- - PropertySpace
BoardSpace <|- - ChanceSpace
BoardSpace <|- - JailSpace
BoardSpace <|- - PassiveSpace
BoardSpace -|> GameBoard::boardSpaces

class GameLogic {
    - chanceCards: ChanceCards
    - players: Player[]
    - turn: int
    - gameBoard: GameBoard
    - dice: Dice
    + GameLogic(players: int)
    + playTurn(): void
    + switchTurn(): void
}

ChanceCards - -> GameLogic::chanceCards
Bank - - -> GameLogic::bank
Player - - -> GameLogic::players
Dice - - -> GameLogic::dice
GameBoard - -> GameLogic

class ConsoleGame {
    + ConsoleGame(players: int)
    + startGame(): void
}

GameLogic - -> ConsoleGame
@enduml

PlantUML version 1.2022.7(Mon Aug 22 19:01:30 CEST 2022)
(GPL source distribution)
Java Runtime: OpenJDK Runtime Environment
JVM: OpenJDK 64-Bit Server VM
Default Encoding: Cp1252
Language: en
Country: GB
--></g></svg>